<?xml version="1.0" encoding="UTF-8"?>
<svg version="1.1" xmlns="http://www.w3.org/2000/svg" width="228" height="235">
<path d="M0 0 C75.24 0 150.48 0 228 0 C228 77.55 228 155.1 228 235 C152.76 235 77.52 235 0 235 C0 157.45 0 79.9 0 0 Z " fill="#05274D" transform="translate(0,0)"/>
<path d="M0 0 C0.66 0.66 1.32 1.32 2 2 C1.67 3.32 1.34 4.64 1 6 C8.26 6 15.52 6 23 6 C24.71367057 9.42734115 25.25357053 10.57855174 25.4140625 14.109375 C25.47207031 15.24052734 25.47207031 15.24052734 25.53125 16.39453125 C25.5621875 17.17183594 25.593125 17.94914062 25.625 18.75 C25.68300781 19.93916016 25.68300781 19.93916016 25.7421875 21.15234375 C25.836108 23.10119416 25.91912822 25.05056451 26 27 C23.48547849 28.38031181 22.30172026 29.01436763 19.375 28.875 C17 28 17 28 15.6875 25.9375 C15.460625 25.298125 15.23375 24.65875 15 24 C13.68 24.33 12.36 24.66 11 25 C10.67 26.32 10.34 27.64 10 29 C8.25 29.75 8.25 29.75 6 30 C3.75 28.0625 3.75 28.0625 2 26 C0.68 27.32 -0.64 28.64 -2 30 C-4.9375 29.1875 -4.9375 29.1875 -8 28 C-9 25 -9 25 -9 22 C-9.309375 22.639375 -9.61875 23.27875 -9.9375 23.9375 C-11 26 -11 26 -12 27 C-13.66608987 27.04384447 -15.33380554 27.0396713 -17 27 C-19.99315418 26.95760008 -19.99315418 26.95760008 -22.9375 27.25 C-26 27 -26 27 -28.4375 25.375 C-30 23 -30 23 -30 19.875 C-29 17 -29 17 -27.375 15.6875 C-24.27703783 14.79072148 -21.19993735 14.36922354 -18 14 C-18 13.34 -18 12.68 -18 12 C-21.3 12.33 -24.6 12.66 -28 13 C-28.33 11.68 -28.66 10.36 -29 9 C-25.33569986 6.65484791 -22.27824017 6.63118619 -18 7 C-14.70021641 8.39606229 -11.979397 10.01373534 -9 12 C-8.34 10.68 -7.68 9.36 -7 8 C-7 14.27 -7 20.54 -7 27 C-5.02 27 -3.04 27 -1 27 C-1 20.4 -1 13.8 -1 7 C-3.31 7 -5.62 7 -8 7 C-5 5 -5 5 -2.875 4.0625 C-0.65504271 3.08091355 -0.65504271 3.08091355 0 0 Z " fill="#061731" transform="translate(187,99)"/>
<path d="M0 0 C0.66 0 1.32 0 2 0 C2.99 2.31 3.98 4.62 5 7 C5 4.69 5 2.38 5 0 C6.32 0.66 7.64 1.32 9 2 C9.33 1.34 9.66 0.68 10 0 C10.66 0 11.32 0 12 0 C12 1.98 12 3.96 12 6 C12.33 6 12.66 6 13 6 C13 4.02 13 2.04 13 0 C15.31 0 17.62 0 20 0 C20 0.66 20 1.32 20 2 C20.66 2 21.32 2 22 2 C22 1.34 22 0.68 22 0 C22.66 0 23.32 0 24 0 C24 0.66 24 1.32 24 2 C24.66 2 25.32 2 26 2 C26 1.34 26 0.68 26 0 C26.66 0.33 27.32 0.66 28 1 C27.34 2.65 26.68 4.3 26 6 C25.34 6 24.68 6 24 6 C24 5.34 24 4.68 24 4 C23.34 4 22.68 4 22 4 C22.26676204 5.98491642 22.26676204 5.98491642 23 8 C23.99 8.33 24.98 8.66 26 9 C26 9.66 26 10.32 26 11 C27.11375 11 28.2275 11 29.375 11 C31.25 11 33.125 11 35 11 C34.34 10.67 33.68 10.34 33 10 C33.33 9.01 33.66 8.02 34 7 C34.66 6.67 35.32 6.34 36 6 C36 4.02 36 2.04 36 0 C38.475 0.495 38.475 0.495 41 1 C41 2.65 41 4.3 41 6 C40.01 6.33 39.02 6.66 38 7 C41.465 6.505 41.465 6.505 45 6 C45 5.34 45 4.68 45 4 C44.34 4 43.68 4 43 4 C42.67 4.66 42.34 5.32 42 6 C42 4.02 42 2.04 42 0 C43.65 0 45.3 0 47 0 C46.67 0.99 46.34 1.98 46 3 C46.99 3 47.98 3 49 3 C49.33 2.01 49.66 1.02 50 0 C53.63 0 57.26 0 61 0 C61.495 2.475 61.495 2.475 62 5 C59.625 5.625 59.625 5.625 57 6 C56.01 5.01 56.01 5.01 55 4 C54.731875 4.639375 54.46375 5.27875 54.1875 5.9375 C53 8 53 8 50 9 C51.32 9.33 52.64 9.66 54 10 C53.67 11.98 53.34 13.96 53 16 C51.35 16.33 49.7 16.66 48 17 C48 16.01 48 15.02 48 14 C47.67 14.99 47.34 15.98 47 17 C46.34 17 45.68 17 45 17 C44.505 16.01 44.505 16.01 44 15 C43.67 15.66 43.34 16.32 43 17 C42.01 16.67 41.02 16.34 40 16 C39.62875 16.515625 39.2575 17.03125 38.875 17.5625 C37 19 37 19 33.8125 18.6875 C32.884375 18.460625 31.95625 18.23375 31 18 C31 16.02 31 14.04 31 12 C30.34 12 29.68 12 29 12 C29 13.65 29 15.3 29 17 C28.34 17 27.68 17 27 17 C27 15.68 27 14.36 27 13 C26.34 13 25.68 13 25 13 C25.495 14.98 25.495 14.98 26 17 C6.53488372 19.51162791 6.53488372 19.51162791 -1 17 C-1.33 16.34 -1.66 15.68 -2 15 C-2.99 15 -3.98 15 -5 15 C-5 15.66 -5 16.32 -5 17 C-7.97 17 -10.94 17 -14 17 C-13.34 15.02 -12.68 13.04 -12 11 C-10.68 11.33 -9.36 11.66 -8 12 C-8 11.34 -8 10.68 -8 10 C-6.02 10 -4.04 10 -2 10 C-2 9.01 -2 8.02 -2 7 C-2.99 6.67 -3.98 6.34 -5 6 C-4.360625 5.38125 -3.72125 4.7625 -3.0625 4.125 C-0.96116416 2.17402388 -0.96116416 2.17402388 0 0 Z " fill="#1B3353" transform="translate(26,141)"/>
<path d="M0 0 C0.99 0 1.98 0 3 0 C5 0 7 0 9 0 C9.14622024 3.20784721 9.23436651 6.41482961 9.3125 9.625 C9.35439453 10.52863281 9.39628906 11.43226562 9.43945312 12.36328125 C9.52149425 16.85913464 9.52013202 20.00442325 6.60546875 23.5859375 C3.54759056 26.41917396 2.88396912 26.94900178 -1.25 27.1875 C-4.89888141 27.00505593 -7.6162953 26.32047013 -11 25 C-10.67 23.68 -10.34 22.36 -10 21 C-6.37 21 -2.74 21 1 21 C1.66 19.68 2.32 18.36 3 17 C2.34 17.33 1.68 17.66 1 18 C-2.74850892 18.58179215 -6.42833223 18.98891455 -9.73828125 16.90625 C-12.33930205 14.151366 -12.99352738 12.18446977 -13.125 8.4375 C-10.78243323 1.2796571 -7.3503723 -0.68059003 0 0 Z " fill="#EDF0F3" transform="translate(94,106)"/>
<path d="M0 0 C0 1.98 0 3.96 0 6 C0.66 6.33 1.32 6.66 2 7 C0.68 7 -0.64 7 -2 7 C-2.33 6.34 -2.66 5.68 -3 5 C-4.32 5 -5.64 5 -7 5 C-6.34 5.33 -5.68 5.66 -5 6 C-5.54723683 9.37462715 -6.0549 11.08235 -8 14 C-8.66 14 -9.32 14 -10 14 C-10 14.66 -10 15.32 -10 16 C-9.34 16.33 -8.68 16.66 -8 17 C-8 16.34 -8 15.68 -8 15 C-7.01 15 -6.02 15 -5 15 C-4.67 14.01 -4.34 13.02 -4 12 C-3.01 12 -2.02 12 -1 12 C-1 12.99 -1 13.98 -1 15 C0.32 14.01 1.64 13.02 3 12 C3 13.65 3 15.3 3 17 C3.99 17.33 4.98 17.66 6 18 C3.27076612 18.0270817 0.54180363 18.04687847 -2.1875 18.0625 C-2.95642578 18.07087891 -3.72535156 18.07925781 -4.51757812 18.08789062 C-8.48526789 18.10491934 -12.12571234 17.98604115 -16 17 C-16.33 17.66 -16.66 18.32 -17 19 C-19.94140625 19.6328125 -19.94140625 19.6328125 -23.5625 20.125 C-24.76003906 20.29257813 -25.95757812 20.46015625 -27.19140625 20.6328125 C-28.11824219 20.75398438 -29.04507813 20.87515625 -30 21 C-30 20.34 -30 19.68 -30 19 C-30.99 19 -31.98 19 -33 19 C-33.33 16.69 -33.66 14.38 -34 12 C-33.34 12 -32.68 12 -32 12 C-32 13.65 -32 15.3 -32 17 C-31.34 17 -30.68 17 -30 17 C-30 15.35 -30 13.7 -30 12 C-26.52674819 10.8422494 -23.63932552 10.93133348 -20 11 C-20.66 10.67 -21.32 10.34 -22 10 C-22 9.34 -22 8.68 -22 8 C-22.99 7.34 -23.98 6.68 -25 6 C-24.67 4.35 -24.34 2.7 -24 1 C-23.01 1.33 -22.02 1.66 -21 2 C-21.33 2.33 -21.66 2.66 -22 3 C-21.34 3.33 -20.68 3.66 -20 4 C-20 5.32 -20 6.64 -20 8 C-18.64381501 6.87465895 -18.64381501 6.87465895 -18.9375 3.9375 C-18.958125 2.968125 -18.97875 1.99875 -19 1 C-16.525 1.495 -16.525 1.495 -14 2 C-14 2.66 -14 3.32 -14 4 C-13.34 4 -12.68 4 -12 4 C-11.67 3.01 -11.34 2.02 -11 1 C-7.26513121 0.4254048 -3.78706732 0 0 0 Z " fill="#47586F" transform="translate(116,140)"/>
<path d="M0 0 C0.66 0 1.32 0 2 0 C2.99 2.31 3.98 4.62 5 7 C5 4.69 5 2.38 5 0 C6.32 0.66 7.64 1.32 9 2 C9.33 1.34 9.66 0.68 10 0 C10.66 0 11.32 0 12 0 C12 1.98 12 3.96 12 6 C12.33 6 12.66 6 13 6 C13 4.02 13 2.04 13 0 C15.31 0 17.62 0 20 0 C20 0.66 20 1.32 20 2 C20.66 2 21.32 2 22 2 C22 1.34 22 0.68 22 0 C22.66 0 23.32 0 24 0 C24 0.66 24 1.32 24 2 C24.66 2 25.32 2 26 2 C26 1.34 26 0.68 26 0 C26.66 0.33 27.32 0.66 28 1 C27.34 2.65 26.68 4.3 26 6 C25.34 6 24.68 6 24 6 C24 5.34 24 4.68 24 4 C23.34 4 22.68 4 22 4 C22 4.66 22 5.32 22 6 C20.02 6.99 20.02 6.99 18 8 C18.495 9.485 18.495 9.485 19 11 C13.25 12.125 13.25 12.125 11 11 C11 12.98 11 14.96 11 17 C11.99 16.67 12.98 16.34 14 16 C14.66 16.66 15.32 17.32 16 18 C13.72923158 18.02699725 11.45837179 18.04639453 9.1875 18.0625 C7.29064453 18.07990234 7.29064453 18.07990234 5.35546875 18.09765625 C2 18 2 18 -1 17 C-1.33 16.34 -1.66 15.68 -2 15 C-2.99 15 -3.98 15 -5 15 C-5 15.66 -5 16.32 -5 17 C-7.97 17 -10.94 17 -14 17 C-13.34 15.02 -12.68 13.04 -12 11 C-10.68 11.33 -9.36 11.66 -8 12 C-8 11.34 -8 10.68 -8 10 C-6.02 10 -4.04 10 -2 10 C-2 9.01 -2 8.02 -2 7 C-2.99 6.67 -3.98 6.34 -5 6 C-4.360625 5.38125 -3.72125 4.7625 -3.0625 4.125 C-0.96116416 2.17402388 -0.96116416 2.17402388 0 0 Z " fill="#091B33" transform="translate(26,141)"/>
<path d="M0 0 C2.64 0 5.28 0 8 0 C8 0.33 8 0.66 8 1 C5.69 1 3.38 1 1 1 C1 9.58 1 18.16 1 27 C-8.75313808 31.33472803 -8.75313808 31.33472803 -13 30 C-15.23167185 30.36856864 -15.23167185 30.36856864 -17 31 C-16.67 30.01 -16.34 29.02 -16 28 C-15.22914062 27.89042969 -14.45828125 27.78085938 -13.6640625 27.66796875 C-12.66117187 27.50941406 -11.65828125 27.35085937 -10.625 27.1875 C-9.62726563 27.03667969 -8.62953125 26.88585937 -7.6015625 26.73046875 C-4.6712636 26.21227702 -4.6712636 26.21227702 -3 23 C-3.99 22.34 -4.98 21.68 -6 21 C-6.99 21.66 -7.98 22.32 -9 23 C-12.59247257 23.45861352 -14.31642691 23.48034866 -17.3125 21.375 C-19.37096501 18.4779011 -19.8524997 16.54000728 -20 13 C-18.87981101 9.63943304 -18.05465901 9.03643934 -15 7 C-11.03952054 6.66293792 -8.40322874 6.90570539 -5 9 C-4.54625 8.34 -4.0925 7.68 -3.625 7 C-3.08875 6.34 -2.5525 5.68 -2 5 C-1.34 5 -0.68 5 0 5 C0 3.35 0 1.7 0 0 Z " fill="#0B213E" transform="translate(132,98)"/>
<path d="M0 0 C3.0625 1.625 3.0625 1.625 5 5 C5.40423918 9.69662106 5.28626311 14.29892365 5 19 C4.05125 18.979375 3.1025 18.95875 2.125 18.9375 C-0.90666283 18.77448174 -0.90666283 18.77448174 -3 20 C-6.26165094 20.28362182 -8.39582309 20.28618906 -11.375 18.875 C-13 17 -13 17 -13.5 14 C-13 11 -13 11 -11.5 9.125 C-7.87739877 7.49482945 -4.95453342 7.80227333 -1 8 C-1.33 7.34 -1.66 6.68 -2 6 C-4.97 6 -7.94 6 -11 6 C-11.33 4.68 -11.66 3.36 -12 2 C-7.94241353 -0.70505765 -4.75885673 -0.74174825 0 0 Z " fill="#F3F6F7" transform="translate(48,106)"/>
<path d="M0 0 C2.31279611 1.15639806 4.17409828 2.17409828 6 4 C6.07319621 6.69654854 6.09242537 9.36691458 6.0625 12.0625 C6.05798828 12.82111328 6.05347656 13.57972656 6.04882812 14.36132812 C6.0370068 16.24091871 6.01907078 18.12046899 6 20 C3.33333333 20 0.66666667 20 -2 20 C-2.969375 20.0825 -3.93875 20.165 -4.9375 20.25 C-8 20 -8 20 -10.4375 18.375 C-12 16 -12 16 -12 12.875 C-11 10 -11 10 -9.375 8.6875 C-6.27703783 7.79072148 -3.19993735 7.36922354 0 7 C0 6.34 0 5.68 0 5 C-3.3 5.33 -6.6 5.66 -10 6 C-10.33 4.68 -10.66 3.36 -11 2 C-7.34387956 -0.33991708 -4.26792624 -0.37437949 0 0 Z " fill="#EBEFF1" transform="translate(169,106)"/>
<path d="M0 0 C2.371875 -0.103125 4.74375 -0.20625 7.1875 -0.3125 C7.92508545 -0.35802002 8.6626709 -0.40354004 9.42260742 -0.45043945 C13.10695333 -0.52755946 14.91942005 -0.05513365 17.96875 2.03125 C20.48569062 5.70985553 20.57924351 8.52408511 20.3125 12.8125 C20.28994141 13.50537109 20.26738281 14.19824219 20.24414062 14.91210938 C20.18562661 16.60901573 20.0959548 18.30479861 20 20 C18.02 20 16.04 20 14 20 C13.67 15.38 13.34 10.76 13 6 C11.35 6 9.7 6 8 6 C6.12175109 7.87824891 6.60897603 11.03935276 6.4375 13.5625 C6.31181641 15.35880859 6.31181641 15.35880859 6.18359375 17.19140625 C6.12300781 18.11824219 6.06242187 19.04507813 6 20 C4.02 20 2.04 20 0 20 C0 13.4 0 6.8 0 0 Z " fill="#EAEEF2" transform="translate(58,106)"/>
<path d="M0 0 C1.65 0 3.3 0 5 0 C5 0.66 5 1.32 5 2 C5.99 1.34 6.98 0.68 8 0 C12.26604187 -0.55300543 14.22517774 -0.58363235 17.70703125 2.0390625 C20.54296737 5.70114015 20.58784099 8.38586413 20.3125 12.8125 C20.28994141 13.50537109 20.26738281 14.19824219 20.24414062 14.91210938 C20.18562661 16.60901573 20.0959548 18.30479861 20 20 C18.02 20 16.04 20 14 20 C13.67 15.71 13.34 11.42 13 7 C11.35 6.67 9.7 6.34 8 6 C6.12175109 7.87824891 6.60897603 11.03935276 6.4375 13.5625 C6.31181641 15.35880859 6.31181641 15.35880859 6.18359375 17.19140625 C6.12300781 18.11824219 6.06242188 19.04507813 6 20 C4.02 20 2.04 20 0 20 C0 13.4 0 6.8 0 0 Z " fill="#EAEEF0" transform="translate(191,106)"/>
<path d="M0 0 C0.845625 0.495 1.69125 0.99 2.5625 1.5 C2.5625 2.49 2.5625 3.48 2.5625 4.5 C1.5725 5.16 0.5825 5.82 -0.4375 6.5 C-1.4275 5.84 -2.4175 5.18 -3.4375 4.5 C-6.8478976 4.28685015 -9.18281799 4.415106 -12.4375 5.5 C-12.623125 6.7375 -12.80875 7.975 -13 9.25 C-13.15662109 10.29414062 -13.15662109 10.29414062 -13.31640625 11.359375 C-13.44464927 13.62638056 -13.09471297 15.33849957 -12.4375 17.5 C-11.02316794 17.7236337 -9.60582382 17.92826476 -8.1875 18.125 C-7.39859375 18.24101563 -6.6096875 18.35703125 -5.796875 18.4765625 C-3.11597541 18.50319395 -1.71055911 17.86592084 0.5625 16.5 C1.5525 17.82 2.5425 19.14 3.5625 20.5 C0.37421654 24.16652597 -2.07665789 24.3739961 -6.8125 24.8125 C-11.83623009 24.37941982 -14.74737986 22.39132491 -18.078125 18.6640625 C-20.48040874 14.83973723 -20.17879348 10.85166726 -19.4375 6.5 C-17.79135601 3.29916447 -15.46290648 1.25196476 -12.5625 -0.875 C-7.94422624 -2.23331581 -4.38423184 -1.91311935 0 0 Z " fill="#F4F7F9" transform="translate(126.4375,101.5)"/>
<path d="M0 0 C1.65 0 3.3 0 5 0 C5 2.97 5 5.94 5 9 C5.99 8.34 6.98 7.68 8 7 C11.64609692 6.52442214 13.46797037 6.69398588 16.67578125 8.5390625 C19.3268649 11.34609224 19.53174962 12.88097831 19.43945312 16.68359375 C19.39755859 17.36550781 19.35566406 18.04742187 19.3125 18.75 C19.28994141 19.44738281 19.26738281 20.14476563 19.24414062 20.86328125 C19.18547048 22.57644935 19.09579256 24.28850623 19 26 C17.35 26 15.7 26 14 26 C13.67 22.04 13.34 18.08 13 14 C8.52297636 12.93462795 8.52297636 12.93462795 6 13 C5.67 17.29 5.34 21.58 5 26 C3.35 26 1.7 26 0 26 C0 17.42 0 8.84 0 0 Z " fill="#F9FCFC" transform="translate(134,99)"/>
<path d="M0 0 C4.95 0 9.9 0 15 0 C14.67 0.66 14.34 1.32 14 2 C11.67843403 2.40729228 9.3431213 2.74438677 7 3 C6.34 4.65 5.68 6.3 5 8 C5.94875 8.70125 6.8975 9.4025 7.875 10.125 C10.99854626 12.69603218 12.07381296 15.01739573 13 19 C10.69 19 8.38 19 6 19 C5.67 19.66 5.34 20.32 5 21 C4.34 20.67 3.68 20.34 3 20 C3 21.65 3 23.3 3 25 C2.34 25 1.68 25 1 25 C1 23.35 1 21.7 1 20 C0.34 20 -0.32 20 -1 20 C-1 21.98 -1 23.96 -1 26 C-1.99 25.67 -2.98 25.34 -4 25 C-4.33 24.01 -4.66 23.02 -5 22 C-4.34 22 -3.68 22 -3 22 C-3 21.01 -3 20.02 -3 19 C-4.65 19 -6.3 19 -8 19 C-7.34 17.68 -6.68 16.36 -6 15 C-5.01 15 -4.02 15 -3 15 C-2.67 13.68 -2.34 12.36 -2 11 C-1.01 12.485 -1.01 12.485 0 14 C1.32 14 2.64 14 4 14 C4 12.68 4 11.36 4 10 C0.37 9.67 -3.26 9.34 -7 9 C-7.33 10.32 -7.66 11.64 -8 13 C-8.99 13 -9.98 13 -11 13 C-9.8125 10.5 -9.8125 10.5 -8 8 C-5.3125 7.6875 -5.3125 7.6875 -3 8 C-2.67 7.34 -2.34 6.68 -2 6 C-1.67 6 -1.34 6 -1 6 C-0.67 4.02 -0.34 2.04 0 0 Z " fill="#061E3D" transform="translate(83,132)"/>
<path d="M0 0 C1.98 0 3.96 0 6 0 C6 6.6 6 13.2 6 20 C9.96 20 13.92 20 18 20 C18 21.32 18 22.64 18 24 C12.06 24 6.12 24 0 24 C0 16.08 0 8.16 0 0 Z " fill="#FBFDFD" transform="translate(15,101)"/>
<path d="M0 0 C1.65 0 3.3 0 5 0 C4.67 0.99 4.34 1.98 4 3 C4.99 3 5.98 3 7 3 C7.33 2.01 7.66 1.02 8 0 C11.63 0 15.26 0 19 0 C19.33 1.65 19.66 3.3 20 5 C17.625 5.625 17.625 5.625 15 6 C14.34 5.34 13.68 4.68 13 4 C12.731875 4.639375 12.46375 5.27875 12.1875 5.9375 C11 8 11 8 8 9 C9.32 9.33 10.64 9.66 12 10 C11.67 11.98 11.34 13.96 11 16 C9.35 16.33 7.7 16.66 6 17 C6 16.01 6 15.02 6 14 C5.67 14.99 5.34 15.98 5 17 C4.34 17 3.68 17 3 17 C2.67 16.34 2.34 15.68 2 15 C1.34 15.66 0.68 16.32 0 17 C0.04125 16.05125 0.0825 15.1025 0.125 14.125 C0.34973818 10.89755144 0.34973818 10.89755144 -2 9 C-0.7625 8.319375 -0.7625 8.319375 0.5 7.625 C1.7375 6.820625 1.7375 6.820625 3 6 C3 5.34 3 4.68 3 4 C2.34 4 1.68 4 1 4 C0.67 4.66 0.34 5.32 0 6 C0 4.02 0 2.04 0 0 Z " fill="#4B5E74" transform="translate(68,141)"/>
<path d="M0 0 C0.99 0.33 1.98 0.66 3 1 C2.67 1.33 2.34 1.66 2 2 C2.66 2.33 3.32 2.66 4 3 C4 4.32 4 5.64 4 7 C5.65 7 7.3 7 9 7 C9 7.66 9 8.32 9 9 C8.34 9 7.68 9 7 9 C7.33 10.32 7.66 11.64 8 13 C8.33 12.34 8.66 11.68 9 11 C9.66 11 10.32 11 11 11 C11 12.98 11 14.96 11 17 C10.01 16.67 9.02 16.34 8 16 C7.67 16.66 7.34 17.32 7 18 C4.05859375 18.6328125 4.05859375 18.6328125 0.4375 19.125 C-0.76003906 19.29257813 -1.95757812 19.46015625 -3.19140625 19.6328125 C-4.11824219 19.75398438 -5.04507813 19.87515625 -6 20 C-6 19.34 -6 18.68 -6 18 C-6.99 18 -7.98 18 -9 18 C-9.33 15.69 -9.66 13.38 -10 11 C-9.34 11 -8.68 11 -8 11 C-8 12.65 -8 14.3 -8 16 C-7.34 16 -6.68 16 -6 16 C-6 14.35 -6 12.7 -6 11 C-2.52674819 9.8422494 0.36067448 9.93133348 4 10 C3.34 9.67 2.68 9.34 2 9 C2 8.34 2 7.68 2 7 C1.01 6.34 0.02 5.68 -1 5 C-0.67 3.35 -0.34 1.7 0 0 Z " fill="#64707F" transform="translate(92,141)"/>
<path d="M0 0 C1.50433594 0.01353516 1.50433594 0.01353516 3.0390625 0.02734375 C3.80992188 0.03894531 4.58078125 0.05054688 5.375 0.0625 C5.375 1.0525 5.375 2.0425 5.375 3.0625 C5.045 2.7325 4.715 2.4025 4.375 2.0625 C1.38610641 1.60484333 -1.61469648 1.35929049 -4.625 1.0625 C-4.295 4.0325 -3.965 7.0025 -3.625 10.0625 C-1.15 10.5575 -1.15 10.5575 1.375 11.0625 C0.385 11.5575 0.385 11.5575 -0.625 12.0625 C-0.14015724 16.70836892 -0.14015724 16.70836892 1.375 21.0625 C-0.41593191 21.14336147 -2.20789628 21.20162702 -4 21.25 C-5.49660156 21.30220703 -5.49660156 21.30220703 -7.0234375 21.35546875 C-7.88195312 21.25878906 -8.74046875 21.16210938 -9.625 21.0625 C-10.285 20.0725 -10.945 19.0825 -11.625 18.0625 C-8.16 17.5675 -8.16 17.5675 -4.625 17.0625 C-4.955 16.0725 -5.285 15.0825 -5.625 14.0625 C-6.615 14.3925 -7.605 14.7225 -8.625 15.0625 C-8.625 14.0725 -8.625 13.0825 -8.625 12.0625 C-9.615 12.0625 -10.605 12.0625 -11.625 12.0625 C-11.955 13.3825 -12.285 14.7025 -12.625 16.0625 C-13.615 15.7325 -14.605 15.4025 -15.625 15.0625 C-15.625 15.7225 -15.625 16.3825 -15.625 17.0625 C-16.615 16.7325 -17.605 16.4025 -18.625 16.0625 C-18.295 15.0725 -17.965 14.0825 -17.625 13.0625 C-16.635 12.7325 -15.645 12.4025 -14.625 12.0625 C-15.945 11.7325 -17.265 11.4025 -18.625 11.0625 C-16.975 11.0625 -15.325 11.0625 -13.625 11.0625 C-13.955 9.0825 -14.285 7.1025 -14.625 5.0625 C-13.305 5.0625 -11.985 5.0625 -10.625 5.0625 C-10.295 4.0725 -9.965 3.0825 -9.625 2.0625 C-9.625 3.7125 -9.625 5.3625 -9.625 7.0625 C-8.965 6.7325 -8.305 6.4025 -7.625 6.0625 C-7.625 4.4125 -7.625 2.7625 -7.625 1.0625 C-4.98041621 -0.25979189 -2.94738699 -0.03427194 0 0 Z " fill="#0D223E" transform="translate(123.625,139.9375)"/>
<path d="M0 0 C6.27 0 12.54 0 19 0 C19 1.98 19 3.96 19 6 C19.66 6 20.32 6 21 6 C21 4.35 21 2.7 21 1 C24 1 27 1 30 1 C30 2.98 30 4.96 30 7 C20 7 10 7 0 7 C0 4.69 0 2.38 0 0 Z " fill="#75818E" transform="translate(135,140)"/>
<path d="M0 0 C0.598125 0.165 1.19625 0.33 1.8125 0.5 C4.11344336 1.1114124 4.11344336 1.1114124 7 1 C8.33981486 1.3062434 9.67511887 1.63451555 11 2 C10.484375 2.680625 9.96875 3.36125 9.4375 4.0625 C7.57269016 7.87319838 7.94773247 9.9412538 9 14 C10.13171452 15.79874322 10.13171452 15.79874322 12 17 C14.74243563 17.36270484 14.74243563 17.36270484 17.6875 17.1875 C19.17830078 17.14689453 19.17830078 17.14689453 20.69921875 17.10546875 C21.45847656 17.07066406 22.21773437 17.03585938 23 17 C22.125 20.875 22.125 20.875 21 22 C18.70940887 22.07322862 16.41666433 22.08358894 14.125 22.0625 C12.86945313 22.05347656 11.61390625 22.04445312 10.3203125 22.03515625 C9.22460938 22.02355469 8.12890625 22.01195312 7 22 C3.94729537 21.84188612 3.94729537 21.84188612 1 23 C1 22.34 1 21.68 1 21 C0.34 20.67 -0.32 20.34 -1 20 C0.65 20 2.3 20 4 20 C3.91254425 17.60250616 3.80562925 15.20851779 3.6875 12.8125 C3.66494141 12.13896484 3.64238281 11.46542969 3.61914062 10.77148438 C3.38404446 6.39014677 2.57557314 3.55608624 0 0 Z " fill="#0C1D35" transform="translate(74,106)"/>
<path d="M0 0 C0.33 0 0.66 0 1 0 C1.06058594 0.95261719 1.12117188 1.90523438 1.18359375 2.88671875 C1.26738281 4.14097656 1.35117187 5.39523438 1.4375 6.6875 C1.51871094 7.92886719 1.59992187 9.17023438 1.68359375 10.44921875 C1.94491317 13.38180337 2.34798379 16.13441617 3 19 C7.08512681 18.88477738 7.08512681 18.88477738 11 18 C12.80029482 15.06644453 12.80029482 15.06644453 14 12 C17.34195749 10.32902126 21.32817465 10.92938797 25 11 C25.33 11.99 25.66 12.98 26 14 C25.28972656 14.13277344 24.57945313 14.26554687 23.84765625 14.40234375 C22.92855469 14.57894531 22.00945313 14.75554687 21.0625 14.9375 C20.14597656 15.11152344 19.22945312 15.28554687 18.28515625 15.46484375 C16.04710156 15.77714988 16.04710156 15.77714988 15 17 C14.66659529 19.95804573 14.66659529 19.95804573 15 23 C18.18762365 25.12508244 20.26512223 25.5020163 24 26 C23.34 26.99 22.68 27.98 22 29 C18.375 29.1875 18.375 29.1875 15 29 C14.67 28.34 14.34 27.68 14 27 C7.73 27 1.46 27 -5 27 C-5 26.67 -5 26.34 -5 26 C0.94 26 6.88 26 13 26 C13 24.35 13 22.7 13 21 C8.71 21 4.42 21 0 21 C0 14.07 0 7.14 0 0 Z " fill="#07162E" transform="translate(21,100)"/>
<path d="M0 0 C4 0 8 0 12 0 C13.28849538 2.57699077 12.77758853 3.50181662 12.0625 6.25 C11.17893464 9.92065074 10.80537032 13.2047213 11 17 C8.525 16.01 8.525 16.01 6 15 C5.34 15.66 4.68 16.32 4 17 C4 15.02 4 13.04 4 11 C2.68 10.34 1.36 9.68 0 9 C0 6.03 0 3.06 0 0 Z " fill="#082347" transform="translate(119,141)"/>
<path d="M0 0 C4.62 0 9.24 0 14 0 C14 0.66 14 1.32 14 2 C14.99 2 15.98 2 17 2 C17 3.32 17 4.64 17 6 C17.66 6 18.32 6 19 6 C19.33 4.02 19.66 2.04 20 0 C24.95 0 29.9 0 35 0 C35 0.33 35 0.66 35 1 C29.58855858 1.83970643 26.62652838 1.93775473 21 1 C21 7.6 21 14.2 21 21 C22.98 21 24.96 21 27 21 C26.34 21.99 25.68 22.98 25 24 C18.25 22.125 18.25 22.125 16 21 C16.03480469 20.11957031 16.06960937 19.23914063 16.10546875 18.33203125 C16.13253906 17.17058594 16.15960938 16.00914063 16.1875 14.8125 C16.22230469 13.66394531 16.25710937 12.51539062 16.29296875 11.33203125 C15.97323533 7.6955965 15.18158273 5.8894086 13 3 C10.23547967 1.61773984 7.9538637 1.90474613 4.875 1.9375 C3.77929688 1.94652344 2.68359375 1.95554687 1.5546875 1.96484375 C0.29011719 1.98224609 0.29011719 1.98224609 -1 2 C-0.67 1.34 -0.34 0.68 0 0 Z " fill="#05162F" transform="translate(37,105)"/>
<path d="M0 0 C6.6 0 13.2 0 20 0 C19.01 0.33 18.02 0.66 17 1 C17 2.65 17 4.3 17 6 C18.423125 5.938125 18.423125 5.938125 19.875 5.875 C23 6 23 6 25 8 C24.01 8.33 23.02 8.66 22 9 C21.67 9.66 21.34 10.32 21 11 C22.98 11 24.96 11 27 11 C26.360625 11.226875 25.72125 11.45375 25.0625 11.6875 C22.72806339 12.85250896 22.72806339 12.85250896 22.25 15.625 C22.1675 16.40875 22.085 17.1925 22 18 C21.67 18 21.34 18 21 18 C21 16.02 21 14.04 21 12 C19.329375 12.061875 19.329375 12.061875 17.625 12.125 C14 12 14 12 12 10 C10.67607028 8.98758315 9.34400833 7.98560611 8 7 C8.66 7 9.32 7 10 7 C10 6.34 10 5.68 10 5 C10.66 5 11.32 5 12 5 C12 5.66 12 6.32 12 7 C12.66 7 13.32 7 14 7 C14.33 5.35 14.66 3.7 15 2 C14.67 2.33 14.34 2.66 14 3 C13.34 3 12.68 3 12 3 C12 2.34 12 1.68 12 1 C11.34 1 10.68 1 10 1 C10 1.66 10 2.32 10 3 C9.34 3 8.68 3 8 3 C8 2.34 8 1.68 8 1 C5.69 1 3.38 1 1 1 C1 2.98 1 4.96 1 7 C2.32 7.33 3.64 7.66 5 8 C2.36 8 -0.28 8 -3 8 C-2.67 7.01 -2.34 6.02 -2 5 C-2 5.66 -2 6.32 -2 7 C-1.34 7 -0.68 7 0 7 C0 4.69 0 2.38 0 0 Z " fill="#06152B" transform="translate(38,140)"/>
<path d="M0 0 C1.98 0 3.96 0 6 0 C6 6.6 6 13.2 6 20 C4.02 20 2.04 20 0 20 C0 13.4 0 6.8 0 0 Z " fill="#E3E7EB" transform="translate(180,106)"/>
<path d="M0 0 C0.99 0.33 1.98 0.66 3 1 C2.01 1.495 2.01 1.495 1 2 C1 3.32 1 4.64 1 6 C1.66 5.67 2.32 5.34 3 5 C5.6723621 4.86584528 8.32250488 4.95681459 11 5 C11.33 5.99 11.66 6.98 12 8 C8.04 8.66 4.08 9.32 0 10 C0.103125 11.423125 0.20625 12.84625 0.3125 14.3125 C0.31640625 16.7890625 0.31640625 16.7890625 0 19 C-2.25 21.1875 -2.25 21.1875 -5 22 C-7.3125 21.1875 -7.3125 21.1875 -9 20 C-7.35 20 -5.7 20 -4 20 C-4.33 14.39 -4.66 8.78 -5 3 C-4.01 3.33 -3.02 3.66 -2 4 C-1.34 2.68 -0.68 1.36 0 0 Z " fill="#0A1D37" transform="translate(158,106)"/>
<path d="M0 0 C0.66 0.66 1.32 1.32 2 2 C1.70066812 3.67310768 1.35719149 5.33828308 1 7 C0.86720103 9.93808751 0.9054589 12.87211311 0.9375 15.8125 C0.94201172 16.60076172 0.94652344 17.38902344 0.95117188 18.20117188 C0.96288688 20.13414761 0.98082002 22.06708393 1 24 C0.01 24.33 -0.98 24.66 -2 25 C-2.33 25.66 -2.66 26.32 -3 27 C-3.66 27 -4.32 27 -5 27 C-4.67 19.74 -4.34 12.48 -4 5 C-5.98 5 -7.96 5 -10 5 C-10.33 5.66 -10.66 6.32 -11 7 C-11.33 6.01 -11.66 5.02 -12 4 C-9.03 4 -6.06 4 -3 4 C-3 3.34 -3 2.68 -3 2 C-2.01 2 -1.02 2 0 2 C0 1.34 0 0.68 0 0 Z " fill="#132439" transform="translate(107,101)"/>
<path d="M0 0 C0.33 0.66 0.66 1.32 1 2 C-0.65 2.33 -2.3 2.66 -4 3 C-2.35 3.33 -0.7 3.66 1 4 C0.37106494 6.93503029 -0.62400065 9.33973459 -2 12 C-2 12.33 -2 12.66 -2 13 C-5.21666704 13.21931821 -7.43362303 13.26828383 -10.375 11.875 C-12 10 -12 10 -12.5 7 C-12 4 -12 4 -10.5 2.1875 C-6.99565869 0.52293788 -3.86296406 0.32191367 0 0 Z " fill="#E6EBEF" transform="translate(47,113)"/>
<path d="M0 0 C3 1 3 1 4 3 C4.33 2.01 4.66 1.02 5 0 C9.62 0 14.24 0 19 0 C19 1.65 19 3.3 19 5 C19.99 5.33 20.98 5.66 22 6 C20.741875 6.185625 19.48375 6.37125 18.1875 6.5625 C17.12595703 6.71912109 17.12595703 6.71912109 16.04296875 6.87890625 C14 7 14 7 11 6 C10.67 5.34 10.34 4.68 10 4 C9.01 4 8.02 4 7 4 C7 4.66 7 5.32 7 6 C4.03 6 1.06 6 -2 6 C-1.34 4.02 -0.68 2.04 0 0 Z " fill="#AEB6C1" transform="translate(14,152)"/>
<path d="M0 0 C0.66 0 1.32 0 2 0 C2.99 2.31 3.98 4.62 5 7 C5 4.69 5 2.38 5 0 C6.32 0.66 7.64 1.32 9 2 C9.33 1.34 9.66 0.68 10 0 C10.66 0 11.32 0 12 0 C12 1.98 12 3.96 12 6 C11.01 6.33 10.02 6.66 9 7 C10.32 7 11.64 7 13 7 C13 7.99 13 8.98 13 10 C9.42355152 11.2380014 6.66305234 10.74926071 3 10 C2.67 8.35 2.34 6.7 2 5 C0.02 5.33 -1.96 5.66 -4 6 C-2.7260411 3.96166576 -1.38938077 1.96147874 0 0 Z " fill="#0F2B4D" transform="translate(26,141)"/>
<path d="M0 0 C3 0.25 3 0.25 5 2.25 C5.3125 4.75 5.3125 4.75 5 7.25 C2 9.25 2 9.25 -1.1875 8.875 C-2.5796875 8.565625 -2.5796875 8.565625 -4 8.25 C-4.625 5.375 -4.625 5.375 -5 2.25 C-3 0.25 -3 0.25 0 0 Z " fill="#0B1A2F" transform="translate(92,110.75)"/>
<path d="M0 0 C0.598125 0.165 1.19625 0.33 1.8125 0.5 C4.11344336 1.1114124 4.11344336 1.1114124 7 1 C8.33981486 1.3062434 9.67511887 1.63451555 11 2 C10.505 2.639375 10.01 3.27875 9.5 3.9375 C7.49049723 8.04023483 7.73614328 11.51443582 8 16 C7.34 16 6.68 16 6 16 C6 16.66 6 17.32 6 18 C5.34 18 4.68 18 4 18 C3.96261719 17.11957031 3.92523438 16.23914063 3.88671875 15.33203125 C3.82097656 14.17058594 3.75523438 13.00914063 3.6875 11.8125 C3.62949219 10.66394531 3.57148437 9.51539062 3.51171875 8.33203125 C2.97745494 4.85319896 2.0052674 2.85468362 0 0 Z " fill="#081B35" transform="translate(74,106)"/>
<path d="M0 0 C1.65 0.33 3.3 0.66 5 1 C5 2.65 5 4.3 5 6 C4.01 6.33 3.02 6.66 2 7 C3.32 7.33 4.64 7.66 6 8 C5.67 8.33 5.34 8.66 5 9 C5.66 9.66 6.32 10.32 7 11 C6.625 14.125 6.625 14.125 6 17 C3.64046906 14.64046906 3.50858587 13.22104383 3 10 C1.02 10 -0.96 10 -3 10 C-2.67 9.01 -2.34 8.02 -2 7 C-1.34 6.67 -0.68 6.34 0 6 C0 4.02 0 2.04 0 0 Z " fill="#213856" transform="translate(62,141)"/>
<path d="M0 0 C3.3 0 6.6 0 10 0 C10.33 1.65 10.66 3.3 11 5 C8 7 8 7 5 7 C5 6.34 5 5.68 5 5 C4.01 5 3.02 5 2 5 C2 5.66 2 6.32 2 7 C1.34 7 0.68 7 0 7 C0 4.69 0 2.38 0 0 Z " fill="#5C6875" transform="translate(12,140)"/>
<path d="M0 0 C9.25 0 9.25 0 14 1 C13.625 3.9375 13.625 3.9375 13 7 C10.13822943 8.43088528 8.06624227 7.59991697 5 7 C5 5.02 5 3.04 5 1 C4.34 1 3.68 1 3 1 C3 2.65 3 4.3 3 6 C2.67 6 2.34 6 2 6 C2 4.35 2 2.7 2 1 C1.34 0.67 0.68 0.34 0 0 Z " fill="#919EA9" transform="translate(52,152)"/>
<path d="M0 0 C0.66 0 1.32 0 2 0 C2 1.65 2 3.3 2 5 C2.99 5 3.98 5 5 5 C5 3.35 5 1.7 5 0 C8 0 11 0 14 0 C14 1.98 14 3.96 14 6 C9.33333333 6 4.66666667 6 0 6 C0 4.02 0 2.04 0 0 Z " fill="#AEB9C3" transform="translate(151,141)"/>
<path d="M0 0 C1.9453125 0.6875 1.9453125 0.6875 4 2 C4.6796875 4.3125 4.6796875 4.3125 4.875 7 C4.95492187 7.886875 5.03484375 8.77375 5.1171875 9.6875 C5 12 5 12 3 14 C3 13.34 3 12.68 3 12 C1.68 12.33 0.36 12.66 -1 13 C-1.02708567 11.39592672 -1.04643483 9.7917215 -1.0625 8.1875 C-1.07410156 7.29417969 -1.08570313 6.40085937 -1.09765625 5.48046875 C-1 3 -1 3 0 0 Z " fill="#071D38" transform="translate(199,111)"/>
<path d="M0 0 C1.32 0 2.64 0 4 0 C3.67 0.66 3.34 1.32 3 2 C2.34 2 1.68 2 1 2 C1 2.66 1 3.32 1 4 C1.66 4.33 2.32 4.66 3 5 C3 4.34 3 3.68 3 3 C3.99 3 4.98 3 6 3 C6.33 2.01 6.66 1.02 7 0 C7.99 0 8.98 0 10 0 C10 0.99 10 1.98 10 3 C11.32 2.01 12.64 1.02 14 0 C14 1.65 14 3.3 14 5 C14.99 5.33 15.98 5.66 17 6 C11.39 6 5.78 6 0 6 C-0.33 4.35 -0.66 2.7 -1 1 C-0.67 0.67 -0.34 0.34 0 0 Z " fill="#A4B1BD" transform="translate(105,152)"/>
<path d="M0 0 C0 4.62 0 9.24 0 14 C-0.33 14 -0.66 14 -1 14 C-1.33 10.04 -1.66 6.08 -2 2 C-2.99 2 -3.98 2 -5 2 C-5.33 3.98 -5.66 5.96 -6 8 C-5.01 8.33 -4.02 8.66 -3 9 C-3.66 9 -4.32 9 -5 9 C-4.67 9.99 -4.34 10.98 -4 12 C-5.625 14.0625 -5.625 14.0625 -8 16 C-11.25 15.75 -11.25 15.75 -14 15 C-14 14.67 -14 14.34 -14 14 C-11.69 14 -9.38 14 -7 14 C-7 9.38 -7 4.76 -7 0 C-5 -1 -5 -1 0 0 Z " fill="#05182F" transform="translate(147,112)"/>
<path d="M0 0 C2.475 0.495 2.475 0.495 5 1 C5 2.32 5 3.64 5 5 C5.66 5 6.32 5 7 5 C6.67 6.65 6.34 8.3 6 10 C6.66 10 7.32 10 8 10 C7.67 11.65 7.34 13.3 7 15 C6.67 13.68 6.34 12.36 6 11 C5.34 11 4.68 11 4 11 C3.67 11.99 3.34 12.98 3 14 C2.67 12.35 2.34 10.7 2 9 C2.66 9 3.32 9 4 9 C4 8.01 4 7.02 4 6 C2.68 6 1.36 6 0 6 C0 4.02 0 2.04 0 0 Z " fill="#162842" transform="translate(97,141)"/>
<path d="M0 0 C4 0 8 0 12 0 C12 3 12 3 10 6 C9.7525 5.360625 9.505 4.72125 9.25 4.0625 C8.18437567 1.81258459 8.18437567 1.81258459 5.875 1.25 C4.946875 1.12625 4.946875 1.12625 4 1 C4 1.66 4 2.32 4 3 C4.99 3 5.98 3 7 3 C6.75 4.875 6.75 4.875 6 7 C4.0625 8.3125 4.0625 8.3125 2 9 C1.34 8.67 0.68 8.34 0 8 C0 5.36 0 2.72 0 0 Z " fill="#8D9BA8" transform="translate(119,141)"/>
<path d="M0 0 C4.95 0 9.9 0 15 0 C14.67 0.66 14.34 1.32 14 2 C12.88625 2.103125 11.7725 2.20625 10.625 2.3125 C9.42875 2.539375 8.2325 2.76625 7 3 C6.505 3.845625 6.01 4.69125 5.5 5.5625 C5.005 6.366875 4.51 7.17125 4 8 C0.3125 8.3125 0.3125 8.3125 -3 8 C-2.67 7.34 -2.34 6.68 -2 6 C-1.67 6 -1.34 6 -1 6 C-0.67 4.02 -0.34 2.04 0 0 Z " fill="#081F3F" transform="translate(83,132)"/>
<path d="M0 0 C2.31 0 4.62 0 7 0 C7 0.66 7 1.32 7 2 C7.66 2 8.32 2 9 2 C9 1.34 9 0.68 9 0 C9.66 0 10.32 0 11 0 C11 0.66 11 1.32 11 2 C11.66 2 12.32 2 13 2 C13 1.34 13 0.68 13 0 C13.66 0.33 14.32 0.66 15 1 C14.34 2.65 13.68 4.3 13 6 C12.34 6 11.68 6 11 6 C11 5.34 11 4.68 11 4 C10.34 4 9.68 4 9 4 C9 4.66 9 5.32 9 6 C8.34 6 7.68 6 7 6 C6.67 4.35 6.34 2.7 6 1 C5.01 1.495 5.01 1.495 4 2 C4.33 3.32 4.66 4.64 5 6 C3.35 6 1.7 6 0 6 C0 4.02 0 2.04 0 0 Z " fill="#CBD4DC" transform="translate(39,141)"/>
<path d="M0 0 C-0.99 0.33 -1.98 0.66 -3 1 C-3.33 1.66 -3.66 2.32 -4 3 C-2.02 3 -0.04 3 2 3 C1.360625 3.226875 0.72125 3.45375 0.0625 3.6875 C-2.27193661 4.85250896 -2.27193661 4.85250896 -2.75 7.625 C-2.8325 8.40875 -2.915 9.1925 -3 10 C-3.33 10 -3.66 10 -4 10 C-4 8.02 -4 6.04 -4 4 C-5.670625 4.061875 -5.670625 4.061875 -7.375 4.125 C-11 4 -11 4 -13 2 C-13.33 1.34 -13.66 0.68 -14 0 C-12.23243706 -0.39012425 -10.46075217 -0.7616098 -8.6875 -1.125 C-7.70136719 -1.33382812 -6.71523438 -1.54265625 -5.69921875 -1.7578125 C-3 -2 -3 -2 0 0 Z " fill="#051A36" transform="translate(63,148)"/>
<path d="M0 0 C3.63 0 7.26 0 11 0 C11.33 1.65 11.66 3.3 12 5 C9.625 5.625 9.625 5.625 7 6 C6.34 5.34 5.68 4.68 5 4 C4.67 4.66 4.34 5.32 4 6 C3.34 6 2.68 6 2 6 C2 4.35 2 2.7 2 1 C1.34 0.67 0.68 0.34 0 0 Z " fill="#9BA5AD" transform="translate(76,141)"/>
<path d="M0 0 C0.66 0.66 1.32 1.32 2 2 C4.89967757 2.30675232 7.71783178 2.51173371 10.625 2.625 C11.42679688 2.66367188 12.22859375 2.70234375 13.0546875 2.7421875 C15.03607556 2.83653931 17.01800645 2.91936215 19 3 C19 3.33 19 3.66 19 4 C17.865625 4.12375 16.73125 4.2475 15.5625 4.375 C13.7990625 4.684375 13.7990625 4.684375 12 5 C11.67 5.66 11.34 6.32 11 7 C10.34 7 9.68 7 9 7 C8.67 6.34 8.34 5.68 8 5 C5.97536745 4.34786708 5.97536745 4.34786708 4 4 C4 5.98 4 7.96 4 10 C5.32 10.33 6.64 10.66 8 11 C6.35 11 4.7 11 3 11 C3 9.68 3 8.36 3 7 C2.01 6.67 1.02 6.34 0 6 C-1.1875 3.9375 -1.1875 3.9375 -2 2 C-1.34 1.34 -0.68 0.68 0 0 Z " fill="#0C1C32" transform="translate(93,137)"/>
<path d="M0 0 C0.33 0 0.66 0 1 0 C1 6.27 1 12.54 1 19 C2.98 19 4.96 19 7 19 C7 14.71 7 10.42 7 6 C7.66 5.67 8.32 5.34 9 5 C8.94012211 7.46098116 8.85321526 9.91578412 8.75 12.375 C8.72873047 13.42300781 8.72873047 13.42300781 8.70703125 14.4921875 C8.609375 16.5234375 8.609375 16.5234375 8 20 C6.203125 21.6015625 6.203125 21.6015625 4 22 C2.68 21.34 1.36 20.68 0 20 C0 13.4 0 6.8 0 0 Z " fill="#010E24" transform="translate(190,107)"/>
<path d="M0 0 C0.66 0 1.32 0 2 0 C2 1.65 2 3.3 2 5 C2.66 5 3.32 5 4 5 C4 3.35 4 1.7 4 0 C7.42298577 1.14099526 8.14758766 2.00085621 10 5 C10 5.99 10 6.98 10 8 C8.02 8.33 6.04 8.66 4 9 C4 8.34 4 7.68 4 7 C3.01 7 2.02 7 1 7 C0.67 4.69 0.34 2.38 0 0 Z " fill="#6B7B8B" transform="translate(82,152)"/>
<path d="M0 0 C0.99 0.33 1.98 0.66 3 1 C2.34 1 1.68 1 1 1 C1.48484276 5.64586892 1.48484276 5.64586892 3 10 C1.20906809 10.08086147 -0.58289628 10.13912702 -2.375 10.1875 C-3.87160156 10.23970703 -3.87160156 10.23970703 -5.3984375 10.29296875 C-6.25695312 10.19628906 -7.11546875 10.09960938 -8 10 C-8.66 9.01 -9.32 8.02 -10 7 C-7.36 6.67 -4.72 6.34 -2 6 C-1.34 4.02 -0.68 2.04 0 0 Z " fill="#081A34" transform="translate(122,151)"/>
<path d="M0 0 C2.64 0 5.28 0 8 0 C8 0.33 8 0.66 8 1 C5.69 1 3.38 1 1 1 C1 8.26 1 15.52 1 23 C0.01 23 -0.98 23 -2 23 C-1.67 22.34 -1.34 21.68 -1 21 C-0.92934383 18.95944995 -0.91578024 16.91665743 -0.9375 14.875 C-0.94652344 13.77929688 -0.95554688 12.68359375 -0.96484375 11.5546875 C-0.97644531 10.71164063 -0.98804688 9.86859375 -1 9 C-1.99 8.67 -2.98 8.34 -4 8 C-3.34 7.01 -2.68 6.02 -2 5 C-1.34 5 -0.68 5 0 5 C0 3.35 0 1.7 0 0 Z " fill="#071934" transform="translate(132,98)"/>
<path d="M0 0 C0.33 0 0.66 0 1 0 C1.33 4.62 1.66 9.24 2 14 C2.99 14.33 3.98 14.66 5 15 C4.4409112 18.24271506 3.5867822 19.93057424 1 22 C0.34 22 -0.32 22 -1 22 C-0.67 14.74 -0.34 7.48 0 0 Z " fill="#03122D" transform="translate(103,106)"/>
<path d="M0 0 C0 1.98 0 3.96 0 6 C0.66 6.33 1.32 6.66 2 7 C0.68 7 -0.64 7 -2 7 C-2.33 6.34 -2.66 5.68 -3 5 C-4.32 5 -5.64 5 -7 5 C-7.33 5.66 -7.66 6.32 -8 7 C-8 5.02 -8 3.04 -8 1 C-5.10765685 0.17361624 -3.11257569 0 0 0 Z " fill="#BFC8CD" transform="translate(116,140)"/>
<path d="M0 0 C0.66 0.66 1.32 1.32 2 2 C1.67 2.99 1.34 3.98 1 5 C0.8535286 6.55266653 0.75305926 8.10995662 0.68359375 9.66796875 C0.64169922 10.56064453 0.59980469 11.45332031 0.55664062 12.37304688 C0.49766602 13.76620117 0.49766602 13.76620117 0.4375 15.1875 C0.39431641 16.12787109 0.35113281 17.06824219 0.30664062 18.03710938 C0.20061335 20.35792854 0.09854971 22.67885325 0 25 C-0.33 25 -0.66 25 -1 25 C-1 19.06 -1 13.12 -1 7 C-3.31 7 -5.62 7 -8 7 C-5 5 -5 5 -2.875 4.0625 C-0.65504271 3.08091355 -0.65504271 3.08091355 0 0 Z " fill="#020E23" transform="translate(187,99)"/>
<path d="M0 0 C0.66 0.66 1.32 1.32 2 2 C1.625 4.625 1.625 4.625 1 7 C-0.32 7.33 -1.64 7.66 -3 8 C-3 7.01 -3 6.02 -3 5 C-5.31 5 -7.62 5 -10 5 C-10.33 5.66 -10.66 6.32 -11 7 C-11.33 6.01 -11.66 5.02 -12 4 C-9.03 4 -6.06 4 -3 4 C-3 3.34 -3 2.68 -3 2 C-2.01 2 -1.02 2 0 2 C0 1.34 0 0.68 0 0 Z " fill="#061B38" transform="translate(107,101)"/>
<path d="M0 0 C0.99 0.33 1.98 0.66 3 1 C2.67 1.33 2.34 1.66 2 2 C2.66 2.33 3.32 2.66 4 3 C4 4.32 4 5.64 4 7 C5.65 7 7.3 7 9 7 C9 7.66 9 8.32 9 9 C4.25 10.125 4.25 10.125 2 9 C2 8.34 2 7.68 2 7 C1.01 6.34 0.02 5.68 -1 5 C-0.67 3.35 -0.34 1.7 0 0 Z " fill="#0C294F" transform="translate(92,141)"/>
<path d="M0 0 C0.66 0 1.32 0 2 0 C2 1.98 2 3.96 2 6 C-0.83556587 7.41778293 -2.9908706 6.86257622 -6.125 6.5625 C-7.22070312 6.46066406 -8.31640625 6.35882813 -9.4453125 6.25390625 C-10.28835937 6.17011719 -11.13140625 6.08632812 -12 6 C-8.91190305 4.23537317 -7.76687864 4 -4 4 C-4 3.01 -4 2.02 -4 1 C-3.34 1 -2.68 1 -2 1 C-2 2.32 -2 3.64 -2 5 C-1.34 5 -0.68 5 0 5 C0 3.35 0 1.7 0 0 Z " fill="#05142C" transform="translate(55,153)"/>
<path d="M0 0 C2.97 0 5.94 0 9 0 C8.67 0.66 8.34 1.32 8 2 C7.34 1.67 6.68 1.34 6 1 C6 2.65 6 4.3 6 6 C5.34 6 4.68 6 4 6 C4 4.35 4 2.7 4 1 C3.34 1 2.68 1 2 1 C2 2.98 2 4.96 2 7 C1.01 6.67 0.02 6.34 -1 6 C-1.33 5.01 -1.66 4.02 -2 3 C-1.34 3 -0.68 3 0 3 C0 2.01 0 1.02 0 0 Z " fill="#061832" transform="translate(80,151)"/>
<path d="M0 0 C1.65 0 3.3 0 5 0 C5.625 1.875 5.625 1.875 6 4 C5.34 4.66 4.68 5.32 4 6 C1.375 5.625 1.375 5.625 -1 5 C-0.67 3.35 -0.34 1.7 0 0 Z " fill="#E3EBEF" transform="translate(181,98)"/>
<path d="M0 0 C1.65 0.33 3.3 0.66 5 1 C5.33 1.99 5.66 2.98 6 4 C5.67 4.66 5.34 5.32 5 6 C3.35 6 1.7 6 0 6 C-1.125 2.25 -1.125 2.25 0 0 Z " fill="#989FAA" transform="translate(55,141)"/>
<path d="M0 0 C1.4540625 0.0309375 1.4540625 0.0309375 2.9375 0.0625 C2.0625 3.9375 2.0625 3.9375 0.9375 5.0625 C-0.72867115 5.10313832 -2.39638095 5.105221 -4.0625 5.0625 C-4.0625 0.08290816 -4.0625 0.08290816 0 0 Z " fill="#31394B" transform="translate(45.0625,116.9375)"/>
<path d="M0 0 C3.1611016 3.1611016 3.38812741 3.5561582 3.6875 7.6875 C3.75324219 8.49574219 3.81898437 9.30398437 3.88671875 10.13671875 C3.92410156 10.75160156 3.96148437 11.36648437 4 12 C3.34 12 2.68 12 2 12 C2 12.66 2 13.32 2 14 C1.34 14 0.68 14 0 14 C0 9.38 0 4.76 0 0 Z " fill="#030F26" transform="translate(78,110)"/>
<path d="M0 0 C2.64 0 5.28 0 8 0 C8 0.66 8 1.32 8 2 C7.01 2 6.02 2 5 2 C4.67 2.99 4.34 3.98 4 5 C4.99 5.33 5.98 5.66 7 6 C4.69 6 2.38 6 0 6 C0 4.02 0 2.04 0 0 Z " fill="#AAB5BF" transform="translate(37,152)"/>
<path d="M0 0 C1.65 0.33 3.3 0.66 5 1 C4.67 2.65 4.34 4.3 4 6 C2.35 5.67 0.7 5.34 -1 5 C-0.67 3.35 -0.34 1.7 0 0 Z " fill="#9AA5AD" transform="translate(61,152)"/>
<path d="M0 0 C1.32 0 2.64 0 4 0 C4 0.66 4 1.32 4 2 C3.01 2.33 2.02 2.66 1 3 C0.34 6.96 -0.32 10.92 -1 15 C-1.33 15 -1.66 15 -2 15 C-2.05386629 12.87527424 -2.09273071 10.75016348 -2.125 8.625 C-2.14820313 7.44164063 -2.17140625 6.25828125 -2.1953125 5.0390625 C-2 2 -2 2 0 0 Z " fill="#04122B" transform="translate(66,111)"/>
<path d="M0 0 C2 0 4 0 6 0 C6 1.98 6 3.96 6 6 C4 6 2 6 0 6 C0 4.02 0 2.04 0 0 Z " fill="#C9D3DD" transform="translate(166,141)"/>
<path d="M0 0 C0.66 0 1.32 0 2 0 C2.33 0.66 2.66 1.32 3 2 C3.33 1.34 3.66 0.68 4 0 C4.66 0 5.32 0 6 0 C6 1.98 6 3.96 6 6 C4 6 2 6 0 6 C0 4.02 0 2.04 0 0 Z " fill="#CAD3DB" transform="translate(97,152)"/>
<path d="M0 0 C0.66 0.66 1.32 1.32 2 2 C1.625 4.125 1.625 4.125 1 6 C0.01 5.67 -0.98 5.34 -2 5 C-2 5.66 -2 6.32 -2 7 C-2.99 6.67 -3.98 6.34 -5 6 C-4.67 5.01 -4.34 4.02 -4 3 C-3.01 2.67 -2.02 2.34 -1 2 C-2.32 1.67 -3.64 1.34 -5 1 C-2.625 0.375 -2.625 0.375 0 0 Z " fill="#0B1F37" transform="translate(110,150)"/>
<path d="M0 0 C0.66 0 1.32 0 2 0 C2.66 0.66 3.32 1.32 4 2 C4.33 1.34 4.66 0.68 5 0 C5.66 0 6.32 0 7 0 C7 1.98 7 3.96 7 6 C4.525 5.01 4.525 5.01 2 4 C1.34 4.66 0.68 5.32 0 6 C0 4.02 0 2.04 0 0 Z " fill="#D8E2EB" transform="translate(123,152)"/>
<path d="M0 0 C1.32 0 2.64 0 4 0 C4.33 1.98 4.66 3.96 5 6 C4.01 6.495 4.01 6.495 3 7 C3.33 7.66 3.66 8.32 4 9 C2.68 9 1.36 9 0 9 C0 8.01 0 7.02 0 6 C0.66 5.67 1.32 5.34 2 5 C1.34 4.34 0.68 3.68 0 3 C0.66 3 1.32 3 2 3 C2 2.34 2 1.68 2 1 C1.34 0.67 0.68 0.34 0 0 Z " fill="#14253E" transform="translate(41,142)"/>
<path d="M0 0 C1.98 0.99 1.98 0.99 4 2 C4.33 1.34 4.66 0.68 5 0 C5.66 0 6.32 0 7 0 C7 1.98 7 3.96 7 6 C6.21625 5.814375 5.4325 5.62875 4.625 5.4375 C2.02910225 4.74037734 2.02910225 4.74037734 0 6 C0 4.02 0 2.04 0 0 Z " fill="#D6DEE5" transform="translate(31,141)"/>
<path d="M0 0 C0.66 0 1.32 0 2 0 C2 1.65 2 3.3 2 5 C2.99 5.33 3.98 5.66 5 6 C2.36 6.33 -0.28 6.66 -3 7 C-3.33 6.01 -3.66 5.02 -4 4 C-3.01 3.67 -2.02 3.34 -1 3 C-0.67 2.01 -0.34 1.02 0 0 Z " fill="#737E8D" transform="translate(31,152)"/>
<path d="M0 0 C2.475 0.495 2.475 0.495 5 1 C4.67 2.65 4.34 4.3 4 6 C2.68 6 1.36 6 0 6 C0 4.02 0 2.04 0 0 Z " fill="#A7AFB9" transform="translate(97,141)"/>
<path d="M0 0 C1.65 0 3.3 0 5 0 C4.67 1.65 4.34 3.3 4 5 C2.68 5.33 1.36 5.66 0 6 C0 4.02 0 2.04 0 0 Z " fill="#C0C8CF" transform="translate(18,141)"/>
<path d="M0 0 C0.33 1.65 0.66 3.3 1 5 C-0.65 5 -2.3 5 -4 5 C-4 4.01 -4 3.02 -4 2 C-4.99 1.67 -5.98 1.34 -7 1 C-4.50935112 0.31292445 -2.62113708 0 0 0 Z " fill="#081F41" transform="translate(28,146)"/>
<path d="M0 0 C2.475 0.495 2.475 0.495 5 1 C5 2.65 5 4.3 5 6 C4.34 6 3.68 6 3 6 C3 5.34 3 4.68 3 4 C2.34 4 1.68 4 1 4 C0.67 4.66 0.34 5.32 0 6 C0 4.02 0 2.04 0 0 Z " fill="#C5CCD1" transform="translate(62,141)"/>
<path d="M0 0 C2.31 0 4.62 0 7 0 C6.34 1.32 5.68 2.64 5 4 C3.35 3.67 1.7 3.34 0 3 C0 2.01 0 1.02 0 0 Z " fill="#0C1423" transform="translate(163,118)"/>
<path d="M0 0 C2.33944736 0.28730055 4.6739143 0.61936779 7 1 C7 1.99 7 2.98 7 4 C4.69 4 2.38 4 0 4 C-0.33 3.01 -0.66 2.02 -1 1 C-0.67 0.67 -0.34 0.34 0 0 Z " fill="#031A36" transform="translate(160,125)"/>
<path d="M0 0 C2.31 0.33 4.62 0.66 7 1 C6.01 2.485 6.01 2.485 5 4 C1.375 4.1875 1.375 4.1875 -2 4 C-2 3.34 -2 2.68 -2 2 C-1.34 2 -0.68 2 0 2 C0 1.34 0 0.68 0 0 Z " fill="#051A38" transform="translate(38,125)"/>
<path d="M0 0 C0.33 0.99 0.66 1.98 1 3 C2.32 2.01 3.64 1.02 5 0 C5 1.65 5 3.3 5 5 C5.99 5.33 6.98 5.66 8 6 C5.36 5.67 2.72 5.34 0 5 C0 3.35 0 1.7 0 0 Z " fill="#788593" transform="translate(114,152)"/>
<path d="M0 0 C0.99 0.33 1.98 0.66 3 1 C4.1875 3.5625 4.1875 3.5625 5 6 C2.69 6 0.38 6 -2 6 C-1.34 4.02 -0.68 2.04 0 0 Z " fill="#C8D2DB" transform="translate(47,152)"/>
<path d="M0 0 C0.66 0 1.32 0 2 0 C2.66 1.98 3.32 3.96 4 6 C1.36 6 -1.28 6 -4 6 C-2.7260411 3.96166576 -1.38938077 1.96147874 0 0 Z " fill="#CDD6DC" transform="translate(26,141)"/>
<path d="M0 0 C2.76276177 0.52268466 5.3260876 1.10869587 8 2 C8 3.32 8 4.64 8 6 C6.0625 5.625 6.0625 5.625 4 5 C3.67 4.34 3.34 3.68 3 3 C2.01 2.67 1.02 2.34 0 2 C0 1.34 0 0.68 0 0 Z " fill="#283749" transform="translate(123,142)"/>
<path d="M0 0 C2.31 0 4.62 0 7 0 C7.33 0.99 7.66 1.98 8 3 C5.36 3 2.72 3 0 3 C0 2.01 0 1.02 0 0 Z " fill="#081125" transform="translate(162,111)"/>
<path d="M0 0 C2 2 2 2 2 5 C2.99 5 3.98 5 5 5 C5 5.99 5 6.98 5 8 C4.01 8 3.02 8 2 8 C1.67 9.32 1.34 10.64 1 12 C0.67 8.04 0.34 4.08 0 0 Z " fill="#02132C" transform="translate(153,109)"/>
<path d="M0 0 C0.99 0.33 1.98 0.66 3 1 C3.33 2.65 3.66 4.3 4 6 C2.02 6 0.04 6 -2 6 C-1.34 4.02 -0.68 2.04 0 0 Z " fill="#C7D5DD" transform="translate(14,152)"/>
<path d="M0 0 C1.65 0 3.3 0 5 0 C4.67 0.99 4.34 1.98 4 3 C4.33 3.99 4.66 4.98 5 6 C4.34 6 3.68 6 3 6 C3 5.34 3 4.68 3 4 C2.34 4 1.68 4 1 4 C0.67 4.66 0.34 5.32 0 6 C0 4.02 0 2.04 0 0 Z " fill="#C9D2D7" transform="translate(68,141)"/>
<path d="M0 0 C0.33 0 0.66 0 1 0 C1 2.31 1 4.62 1 7 C2.32 7.33 3.64 7.66 5 8 C2 9 2 9 -1 8 C-1.8125 6.1875 -1.8125 6.1875 -2 4 C-1.0625 1.75 -1.0625 1.75 0 0 Z " fill="#062043" transform="translate(11,140)"/>
<path d="M0 0 C1.32 0.33 2.64 0.66 4 1 C4.33 2.65 4.66 4.3 5 6 C3.35 6 1.7 6 0 6 C0 4.02 0 2.04 0 0 Z " fill="#D4DAE1" transform="translate(39,141)"/>
<path d="M0 0 C1.65 0 3.3 0 5 0 C4.34 1.65 3.68 3.3 3 5 C1.68 4.67 0.36 4.34 -1 4 C-0.67 2.68 -0.34 1.36 0 0 Z " fill="#223148" transform="translate(42,153)"/>
<path d="M0 0 C1.32 0 2.64 0 4 0 C4 1.98 4 3.96 4 6 C4.66 6.33 5.32 6.66 6 7 C4.68 7 3.36 7 2 7 C2 5.35 2 3.7 2 2 C1.34 2 0.68 2 0 2 C0 1.34 0 0.68 0 0 Z " fill="#8895A0" transform="translate(112,140)"/>
<path d="M0 0 C0.33 1.32 0.66 2.64 1 4 C-1.31 4.33 -3.62 4.66 -6 5 C-6 4.34 -6 3.68 -6 3 C-2.53846154 0 -2.53846154 0 0 0 Z " fill="#0A243F" transform="translate(160,124)"/>
<path d="M0 0 C0.99 0.33 1.98 0.66 3 1 C2.67 1.33 2.34 1.66 2 2 C2.66 2.33 3.32 2.66 4 3 C3.67 3.99 3.34 4.98 3 6 C1.68 5.67 0.36 5.34 -1 5 C-0.67 3.35 -0.34 1.7 0 0 Z " fill="#D4DFE4" transform="translate(75,152)"/>
<path d="M0 0 C0.99 0.33 1.98 0.66 3 1 C2.67 1.33 2.34 1.66 2 2 C2.66 2.33 3.32 2.66 4 3 C3.67 3.99 3.34 4.98 3 6 C1.68 5.67 0.36 5.34 -1 5 C-0.67 3.35 -0.34 1.7 0 0 Z " fill="#D3DEE6" transform="translate(92,141)"/>
<path d="M0 0 C-0.375 1.9375 -0.375 1.9375 -1 4 C-1.99 4.495 -1.99 4.495 -3 5 C-3.33 4.34 -3.66 3.68 -4 3 C-6.52733235 2.34444881 -6.52733235 2.34444881 -9 2 C-9 1.67 -9 1.34 -9 1 C-2.25 0 -2.25 0 0 0 Z " fill="#3D444F" transform="translate(97,123)"/>
<path d="M0 0 C3.125 -0.1875 3.125 -0.1875 6 0 C4.8125 1.5 4.8125 1.5 3 3 C0.3125 3.1875 0.3125 3.1875 -2 3 C-1.34 2.01 -0.68 1.02 0 0 Z " fill="#05244A" transform="translate(68,148)"/>
</svg>
