<?xml version="1.0" encoding="UTF-8"?>
<svg version="1.1" xmlns="http://www.w3.org/2000/svg" width="400" height="400">
<path d="M0 0 C132 0 264 0 400 0 C400 132 400 264 400 400 C268 400 136 400 0 400 C0 268 0 136 0 0 Z " fill="#FEFEFE" transform="translate(0,0)"/>
<path d="M0 0 C0 0.66 0 1.32 0 2 C1.98 2.33 3.96 2.66 6 3 C6 3.66 6 4.32 6 5 C6.83917969 5.37125 6.83917969 5.37125 7.6953125 5.75 C17.86613484 11.26637822 24.51518593 20.98587726 28.40014648 31.64672852 C29.59825295 36.34699236 29.38738813 41.11769969 29.3125 45.9375 C29.31572266 46.97068359 29.31894531 48.00386719 29.32226562 49.06835938 C29.25594379 58.58855786 28.0448747 66.3475781 23 74.5 C22.60337158 75.14509521 22.20674316 75.79019043 21.7980957 76.45483398 C13.97541647 88.66887044 2.3492934 95.73624207 -11.54077148 99.40185547 C-19.95190181 100.8562467 -28.67493402 100.40785778 -37.18725586 100.36035156 C-52.73028094 100.14972181 -52.73028094 100.14972181 -65.88696289 107.75537109 C-71.71767951 113.84590393 -73.44782518 120.3192357 -73.43237305 128.50561523 C-73.4425647 129.32593735 -73.45275635 130.14625946 -73.46325684 130.99143982 C-73.49325166 133.68056183 -73.50263194 136.36932683 -73.51171875 139.05859375 C-73.52857548 140.93190177 -73.54672705 142.80519854 -73.56611633 144.67848206 C-73.61351454 149.59223925 -73.64338969 154.50595084 -73.66955566 159.41986084 C-73.69941262 164.44080609 -73.74592529 169.46159441 -73.79101562 174.48242188 C-73.87693289 184.32153232 -73.9443296 194.16067516 -74 204 C-87.41225793 204.0231207 -100.82451117 204.04091369 -114.23678493 204.05181217 C-120.46393472 204.0570416 -126.69107092 204.06414033 -132.91821289 204.07543945 C-138.92226865 204.08626621 -144.92631129 204.09227638 -150.93037605 204.09487724 C-153.2266161 204.09673188 -155.52285539 204.10035321 -157.81908989 204.10573006 C-161.02320814 204.11293768 -164.2272715 204.11399106 -167.43139648 204.11352539 C-168.39092728 204.11712067 -169.35045807 204.12071594 -170.33906555 204.12442017 C-171.20709808 204.1230455 -172.07513062 204.12167084 -172.96946716 204.12025452 C-174.1074206 204.12163721 -174.1074206 204.12163721 -175.268363 204.12304783 C-177 204 -177 204 -178 203 C-178.0956161 201.54518505 -178.12188351 200.08574514 -178.12025452 198.62779236 C-178.12231651 197.21215248 -178.12231651 197.21215248 -178.12442017 195.76791382 C-178.12082489 194.72422638 -178.11722961 193.68053894 -178.11352539 192.60522461 C-178.11367142 191.51267868 -178.11381744 190.42013275 -178.1139679 189.29447937 C-178.11326822 185.66374767 -178.10547329 182.03306654 -178.09765625 178.40234375 C-178.09579226 175.89270557 -178.09436827 173.38306702 -178.09336853 170.87342834 C-178.08993348 164.93065407 -178.08204273 158.98789616 -178.07201904 153.04513031 C-178.05976253 145.61798075 -178.05437792 138.19082895 -178.04882812 130.76367188 C-178.03808811 117.50910527 -178.02120082 104.25455379 -178 91 C-174.69328569 91.62068877 -172.00460087 92.36096284 -169 93.875 C-152.77463858 101.18708722 -134.58184986 100.96405561 -118 95 C-108.9819741 91.44434776 -101.10406012 86.58243332 -94 80 C-92.95585937 79.03707031 -92.95585937 79.03707031 -91.890625 78.0546875 C-82.41650344 68.39695893 -77.81641764 55.90392067 -74.9140625 42.95703125 C-72.50466349 32.2312341 -69.20241891 22.50794902 -62 14 C-61.37738281 13.23171875 -60.75476563 12.4634375 -60.11328125 11.671875 C-44.94393945 -5.31778782 -20.4439757 -8.3566616 0 0 Z " fill="#0E0E0E" transform="translate(274,100)"/>
<path d="M0 0 C0.66 0.33 1.32 0.66 2 1 C0.02 1.99 0.02 1.99 -2 3 C-1.34 2.01 -0.68 1.02 0 0 Z M-5 5 C-3 7 -3 7 -3 9 C-3.99 9.33 -4.98 9.66 -6 10 C-6 6 -6 6 -5 5 Z " fill="#F3F3F3" transform="translate(211,204)"/>
<path d="M0 0 C0.75 1.75 0.75 1.75 1 4 C-0.9375 6.25 -0.9375 6.25 -3 8 C-3.33 7.01 -3.66 6.02 -4 5 C-2.0625 2.3125 -2.0625 2.3125 0 0 Z " fill="#1E1E1E" transform="translate(293,175)"/>
</svg>
