<?xml version="1.0" encoding="UTF-8"?>
<svg version="1.1" xmlns="http://www.w3.org/2000/svg" width="360" height="360">
<path d="M0 0 C0.8156543 0.19867676 1.63130859 0.39735352 2.47167969 0.60205078 C50.54561967 12.58910903 91.81564049 41.53395033 117.57421875 84.19140625 C127.60026269 101.34177159 134.30748883 119.73520555 139 139 C139.17934082 139.7125293 139.35868164 140.42505859 139.54345703 141.15917969 C144.94218681 163.68694783 144.64725834 192.56318383 139 215 C138.70198486 216.22348145 138.70198486 216.22348145 138.39794922 217.47167969 C126.41089097 265.54561967 97.46604967 306.81564049 54.80859375 332.57421875 C37.65822841 342.60026269 19.26479445 349.30748883 0 354 C-0.7125293 354.17934082 -1.42505859 354.35868164 -2.15917969 354.54345703 C-24.68694783 359.94218681 -53.56318383 359.64725834 -76 354 C-77.22348145 353.70198486 -77.22348145 353.70198486 -78.47167969 353.39794922 C-126.54561967 341.41089097 -167.81564049 312.46604967 -193.57421875 269.80859375 C-203.60026269 252.65822841 -210.30748883 234.26479445 -215 215 C-215.26901123 213.93120605 -215.26901123 213.93120605 -215.54345703 212.84082031 C-220.94218681 190.31305217 -220.64725834 161.43681617 -215 139 C-214.80132324 138.1843457 -214.60264648 137.36869141 -214.39794922 136.52832031 C-202.41089097 88.45438033 -173.46604967 47.18435951 -130.80859375 21.42578125 C-113.65822841 11.39973731 -95.26479445 4.69251117 -76 0 C-74.93120605 -0.26901123 -74.93120605 -0.26901123 -73.84082031 -0.54345703 C-51.31305217 -5.94218681 -22.43681617 -5.64725834 0 0 Z " fill="#000000" transform="translate(218,3)"/>
<path d="M0 0 C3.13576152 2.88840272 5.15369248 5.71098562 7.1796875 9.453125 C7.77144775 10.53480957 8.36320801 11.61649414 8.97290039 12.73095703 C9.4372197 13.59022797 9.4372197 13.59022797 9.91091919 14.46685791 C11.56732821 17.53051461 13.24719851 20.58126498 14.92578125 23.6328125 C15.26731735 24.2547348 15.60885345 24.8766571 15.96073914 25.51742554 C19.22607517 31.44670418 22.62754422 37.29249774 26.0625 43.125 C30.80838618 51.19634398 35.4472645 59.31814373 40 67.5 C44.575664 75.7220259 49.23570748 83.8858143 54 92 C59.36247314 101.13296207 64.57509378 110.33992899 69.72143555 119.59619141 C74.57176542 128.29621789 79.57432432 136.90217273 84.64648438 145.47460938 C85.20271484 146.41884766 85.75894531 147.36308594 86.33203125 148.3359375 C86.82421143 149.16657715 87.3163916 149.9972168 87.82348633 150.85302734 C89 153 89 153 90 156 C31.26 156 -27.48 156 -88 156 C-86.56386092 151.69158276 -85.47293907 148.78934128 -83.234375 145.04296875 C-82.68136719 144.10839844 -82.12835938 143.17382812 -81.55859375 142.2109375 C-80.66333984 140.71433594 -80.66333984 140.71433594 -79.75 139.1875 C-74.72263435 130.68365376 -69.79726527 122.13575698 -65 113.5 C-59.86447161 104.27025844 -54.59786397 95.12761208 -49.25 86.01953125 C-45.07756041 78.8947181 -41.01504756 71.71453859 -37 64.5 C-31.87231261 55.28618673 -26.61694279 46.15751209 -21.27636719 37.06567383 C-16.21181956 28.42005348 -11.3068659 19.69051885 -6.44140625 10.93164062 C-5.88839844 9.93712891 -5.33539063 8.94261719 -4.765625 7.91796875 C-4.27868164 7.03906982 -3.79173828 6.1601709 -3.29003906 5.25463867 C-2.2637403 3.46094657 -1.14631456 1.71947185 0 0 Z " fill="#FDFDFD" transform="translate(181,88)"/>
</svg>
